<?xml version="1.0" standalone="no"?>
<!DOCTYPE svg PUBLIC "-//W3C//DTD SVG 20010904//EN"
 "http://www.w3.org/TR/2001/REC-SVG-20010904/DTD/svg10.dtd">
<svg version="1.0" xmlns="http://www.w3.org/2000/svg"
 width="16.000000pt" height="16.000000pt" viewBox="0 0 16.000000 16.000000"
 preserveAspectRatio="xMidYMid meet">
<metadata>
Created by potrace 1.11, written by Peter Selinger 2001-2013
</metadata>
<g transform="translate(0.000000,16.000000) scale(0.006154,-0.006154)"
fill="#000000" stroke="none">
<path d="M0 1300 l0 -1300 1300 0 1300 0 0 1300 0 1300 -1300 0 -1300 0 0
-1300z m1360 1014 c-20 -36 -30 -66 -28 -85 l3 -29 45 30 c25 16 48 30 53 30
4 0 7 -31 7 -70 0 -38 -3 -70 -7 -70 -5 0 -28 11 -52 25 -23 14 -45 25 -47 25
-2 0 -4 -20 -4 -45 0 -40 3 -45 33 -60 43 -20 67 -62 67 -118 0 -121 -159
-169 -227 -68 -44 65 -18 157 52 187 33 14 35 17 35 64 l0 50 -55 -31 -55 -31
0 82 0 82 38 -23 c20 -12 41 -26 47 -31 36 -32 32 19 -6 87 l-31 55 82 0 82 0
-32 -56z m-266 -410 c19 -18 21 -65 4 -82 -20 -20 -65 -14 -82 10 -21 30 -20
44 4 68 24 24 53 26 74 4z m498 -1 c35 -32 13 -93 -34 -93 -27 0 -58 28 -58
52 0 23 34 58 57 58 9 0 25 -7 35 -17z m-657 -43 c15 -16 17 -26 9 -48 -17
-50 -94 -39 -94 14 0 49 52 70 85 34z m815 0 c24 -24 25 -43 4 -64 -18 -19
-55 -21 -72 -4 -18 18 -15 65 6 77 25 15 40 13 62 -9z m-966 -66 c9 -8 16 -22
16 -29 0 -7 -7 -21 -16 -29 -30 -30 -74 -13 -74 29 0 42 44 59 74 29z m1103 8
c27 -17 19 -70 -12 -78 -31 -8 -55 10 -55 40 0 38 36 58 67 38z m-719 -99 c17
-49 38 -114 46 -145 l14 -58 -24 0 c-19 0 -25 7 -34 43 -6 23 -22 75 -37 116
l-26 73 -41 -5 c-168 -23 -461 -161 -640 -301 -59 -45 -73 -52 -88 -43 -10 7
-18 14 -18 17 0 10 88 79 172 135 157 106 380 202 553 239 39 8 75 15 80 15 6
1 25 -38 43 -86z m177 37 c0 -24 -6 -35 -21 -41 -27 -9 -64 14 -64 41 0 27 37
50 64 41 15 -6 21 -17 21 -41z m235 31 c226 -51 523 -197 673 -332 40 -35 41
-38 25 -55 -16 -16 -19 -15 -65 23 -167 139 -482 292 -656 318 l-47 7 -21 -48
c-11 -27 -28 -79 -37 -116 -14 -60 -19 -68 -39 -68 -28 0 -29 -1 2 106 28 94
64 184 74 184 3 0 44 -9 91 -19z m-922 -63 c5 -39 -33 -58 -60 -30 -17 16 -18
23 -8 41 17 33 64 25 68 -11z m1370 0 c2 -19 -3 -30 -17 -38 -28 -15 -61 3
-61 34 0 31 9 37 45 34 24 -2 31 -8 33 -30z m-1503 -83 c0 -27 -3 -30 -30 -30
-21 0 -31 5 -33 18 -6 33 6 49 35 45 24 -3 28 -8 28 -33z m801 27 c29 -19 19
-72 -14 -72 -39 0 -57 50 -24 69 21 12 24 13 38 3z m829 -11 c9 -31 -5 -52
-33 -49 -33 4 -50 31 -33 52 18 22 58 20 66 -3z m-1745 -102 c0 -24 -27 -36
-48 -22 -23 14 -25 29 -7 47 21 20 55 5 55 -25z m1860 0 c0 -24 -27 -36 -48
-22 -23 14 -25 29 -7 47 21 20 55 5 55 -25z m-1541 -26 c49 -57 75 -135 69
-204 -3 -27 -3 -49 -1 -49 2 0 20 11 41 24 20 14 49 28 64 31 39 10 113 -26
132 -64 30 -57 15 -153 -31 -194 -20 -17 -21 -17 -26 13 -16 78 -102 106 -158
51 -55 -56 -32 -153 50 -208 149 -101 362 -4 395 180 9 48 -5 48 -73 2 -28
-19 -53 -35 -56 -35 -3 0 -5 59 -5 130 0 72 3 130 6 130 4 0 29 -20 56 -46 26
-25 53 -42 58 -39 9 6 3 24 -48 153 l-22 52 126 0 c97 0 125 -3 121 -12 -2 -7
-19 -52 -37 -100 -19 -49 -30 -91 -26 -95 3 -4 28 14 54 40 26 26 53 47 60 47
9 0 12 -35 12 -130 0 -79 -4 -130 -10 -130 -5 0 -30 16 -56 35 -56 43 -74 45
-74 8 0 -82 92 -191 184 -218 62 -19 90 -19 152 0 123 36 182 168 108 242 -48
48 -137 20 -151 -48 -8 -44 -19 -44 -48 -1 -35 53 -42 102 -21 156 14 36 26
49 60 65 23 12 50 21 60 21 20 0 92 -35 101 -50 15 -25 25 -5 25 51 0 88 17
135 71 193 l48 51 17 -40 c19 -46 22 -164 6 -235 -13 -52 -11 -55 16 -41 35
18 123 13 160 -9 62 -38 89 -140 57 -218 -16 -38 -52 -82 -67 -82 -4 0 -8 15
-8 34 0 96 -74 155 -154 122 -96 -40 -61 -215 54 -273 49 -26 128 -30 195 -12
55 15 137 100 158 164 16 47 22 85 12 85 -11 0 -64 -27 -103 -53 -23 -15 -42
-26 -42 -23 0 18 33 171 46 213 l17 52 58 -46 c33 -25 62 -44 64 -41 3 3 -12
44 -34 92 -46 98 -55 91 76 61 l71 -17 -16 -51 c-16 -53 -17 -63 -7 -152 7
-58 -8 -94 -46 -112 -21 -10 -34 -35 -68 -129 -46 -131 -49 -158 -22 -236 l19
-56 -57 -53 c-32 -30 -67 -67 -78 -84 l-21 -29 -68 31 c-359 165 -1253 176
-1681 21 -46 -16 -86 -34 -89 -39 -10 -16 -43 -9 -49 10 -3 11 -35 47 -71 80
l-64 61 22 75 22 75 -38 112 c-42 124 -59 158 -81 158 -38 0 -66 101 -42 149
14 28 13 36 -5 97 -11 36 -17 68 -15 71 6 5 97 29 148 37 l35 6 -38 -77 c-20
-43 -37 -84 -38 -91 0 -7 27 7 59 32 l59 46 15 -39 c17 -41 47 -177 47 -211 0
-20 -1 -20 -33 4 -43 33 -104 58 -112 46 -9 -15 33 -121 63 -160 43 -54 122
-90 199 -90 80 0 118 16 165 68 105 116 43 282 -85 228 -48 -20 -68 -53 -69
-116 l0 -52 -30 29 c-54 51 -73 111 -57 183 18 79 67 120 146 120 28 0 64 -5
79 -10 25 -10 26 -9 20 17 -17 81 -18 180 -2 236 9 31 21 57 26 57 4 0 27 -21
49 -47z m601 2 c0 -18 -5 -25 -19 -25 -11 0 -23 5 -26 10 -11 18 3 40 25 40
15 0 20 -7 20 -25z m-1025 -60 c0 -30 -39 -27 -43 3 -3 20 0 23 20 20 15 -2
23 -10 23 -23z m2050 0 c0 -30 -39 -27 -43 3 -3 20 0 23 20 20 15 -2 23 -10
23 -23z m-615 -980 c217 -28 440 -87 440 -116 0 -12 -96 -45 -185 -63 -324
-65 -716 -80 -1102 -40 -223 23 -441 72 -451 102 -12 37 279 105 558 132 146
13 594 5 740 -15z"/>
<path d="M1239 2021 c-39 -40 -37 -51 11 -51 l40 0 0 40 c0 48 -11 50 -51 11z"/>
<path d="M1320 2010 l0 -40 40 0 c49 0 52 18 9 54 -41 35 -49 33 -49 -14z"/>
<path d="M1210 1930 c0 -42 70 -87 117 -75 35 8 73 43 73 67 0 16 -10 18 -95
18 -59 0 -95 -4 -95 -10z"/>
<path d="M1276 1224 c-22 -22 -20 -50 5 -68 43 -30 93 20 63 63 -18 25 -46 27
-68 5z"/>
<path d="M131 1121 c-14 -25 -14 -54 0 -85 17 -36 36 -39 56 -10 15 23 15 30
2 67 -16 46 -42 59 -58 28z"/>
<path d="M2436 1118 c-20 -28 -20 -78 -1 -104 15 -19 15 -19 35 5 30 35 26
121 -6 121 -7 0 -20 -10 -28 -22z"/>
<path d="M1262 820 l-41 -71 41 -64 c22 -36 43 -65 47 -65 3 0 23 29 43 64
l38 64 -38 71 c-20 39 -40 71 -43 71 -4 0 -25 -32 -47 -70z"/>
<path d="M1021 824 c-30 -38 -9 -84 40 -84 38 0 63 37 50 72 -17 44 -60 50
-90 12z"/>
<path d="M1527 832 c-22 -24 -21 -55 1 -75 24 -22 55 -21 75 1 23 26 21 58 -5
76 -29 21 -51 20 -71 -2z"/>
<path d="M722 793 c-135 -66 -63 -212 92 -189 35 6 57 17 86 45 44 41 50 72
24 109 -35 51 -135 68 -202 35z"/>
<path d="M1736 795 c-39 -21 -55 -44 -56 -80 0 -41 25 -73 74 -96 49 -22 95
-24 139 -5 95 40 92 131 -5 182 -35 18 -116 18 -152 -1z"/>
<path d="M452 744 c-24 -16 -28 -44 -12 -75 21 -39 100 -12 100 34 0 20 -34
57 -53 57 -7 0 -23 -7 -35 -16z"/>
<path d="M2096 734 c-37 -37 -1 -103 49 -90 14 4 31 17 37 31 23 52 -46 100
-86 59z"/>
<path d="M1028 688 c-39 -30 -15 -98 33 -98 23 0 59 34 59 55 0 21 -36 55 -58
55 -10 0 -25 -6 -34 -12z"/>
<path d="M1510 680 c-25 -25 -26 -52 -2 -73 37 -34 92 -11 92 38 0 24 -33 55
-57 55 -7 0 -22 -9 -33 -20z"/>
<path d="M265 608 c-7 -39 -5 -44 26 -70 18 -15 36 -28 40 -28 4 0 10 20 13
45 7 41 5 47 -21 70 -39 34 -50 31 -58 -17z"/>
<path d="M2292 623 c-31 -27 -32 -29 -21 -70 6 -24 14 -43 18 -43 15 1 70 61
67 72 -3 7 -7 25 -10 41 -4 15 -10 27 -14 27 -4 0 -22 -12 -40 -27z"/>
<path d="M496 594 c-41 -40 7 -109 59 -86 14 6 27 23 31 37 13 50 -53 86 -90
49z"/>
<path d="M2052 594 c-24 -17 -30 -62 -10 -82 20 -20 65 -14 82 10 21 30 20 44
-4 68 -24 24 -38 25 -68 4z"/>
</g>
</svg>
